<svg width="39" height="40" viewBox="0 0 39 40" fill="none" xmlns="http://www.w3.org/2000/svg">
<path d="M38.6641 17.8203C38.6641 19.3047 38.4844 20.7734 38.125 22.2266C37.7812 23.6641 37.25 24.9688 36.5312 26.1406C35.8125 27.2969 34.9062 28.2266 33.8125 28.9297C32.7344 29.6172 31.4531 29.9609 29.9688 29.9609C28.7969 29.9609 27.7578 29.6797 26.8516 29.1172C25.9609 28.5547 25.3359 27.8281 24.9766 26.9375H24.6016C23.9453 27.7344 23.0859 28.4375 22.0234 29.0469C20.9609 29.6562 19.6719 29.9609 18.1562 29.9609C15.2969 29.9609 13.0938 29.1094 11.5469 27.4062C10 25.6875 9.22656 23.4375 9.22656 20.6562C9.22656 18.5 9.6875 16.6016 10.6094 14.9609C11.5312 13.3047 12.8438 12.0078 14.5469 11.0703C16.25 10.1328 18.2578 9.66406 20.5703 9.66406C22.0859 9.66406 23.6406 9.80469 25.2344 10.0859C26.8438 10.3516 28.1016 10.6406 29.0078 10.9531L28.5391 20.7969C28.5078 21.125 28.4844 21.4531 28.4688 21.7812C28.4688 22.1094 28.4688 22.3203 28.4688 22.4141C28.4688 23.7422 28.6484 24.625 29.0078 25.0625C29.3828 25.4844 29.7969 25.6953 30.25 25.6953C30.9688 25.6953 31.5703 25.3359 32.0547 24.6172C32.5391 23.8984 32.9062 22.9375 33.1562 21.7344C33.4062 20.5312 33.5312 19.2109 33.5312 17.7734C33.5312 15.1016 32.9844 12.8281 31.8906 10.9531C30.8125 9.0625 29.3281 7.625 27.4375 6.64062C25.5625 5.64062 23.4297 5.14062 21.0391 5.14062C18.5234 5.14062 16.3047 5.53906 14.3828 6.33594C12.4609 7.13281 10.8438 8.25 9.53125 9.6875C8.23438 11.125 7.25 12.8203 6.57812 14.7734C5.92188 16.7266 5.59375 18.8594 5.59375 21.1719C5.59375 24.0469 6.10938 26.4844 7.14062 28.4844C8.17188 30.4844 9.6875 32 11.6875 33.0312C13.7031 34.0625 16.1641 34.5781 19.0703 34.5781C20.9297 34.5781 22.8594 34.375 24.8594 33.9688C26.875 33.5469 28.7188 33.0234 30.3906 32.3984V36.9219C28.8594 37.5625 27.1484 38.0703 25.2578 38.4453C23.3672 38.8359 21.3672 39.0312 19.2578 39.0312C15.2891 39.0312 11.8984 38.3281 9.08594 36.9219C6.27344 35.5156 4.11719 33.4922 2.61719 30.8516C1.13281 28.1953 0.390625 25.0156 0.390625 21.3125C0.390625 18.4062 0.867188 15.7109 1.82031 13.2266C2.78906 10.7266 4.17188 8.54688 5.96875 6.6875C7.76562 4.8125 9.92969 3.35156 12.4609 2.30469C15.0078 1.25781 17.8516 0.734375 20.9922 0.734375C24.4141 0.734375 27.4531 1.42969 30.1094 2.82031C32.7812 4.19531 34.875 6.15625 36.3906 8.70312C37.9062 11.25 38.6641 14.2891 38.6641 17.8203ZM14.6641 20.75C14.6641 22.5 15.0234 23.7656 15.7422 24.5469C16.4766 25.3125 17.4609 25.6953 18.6953 25.6953C20.3047 25.6953 21.4375 25.1094 22.0938 23.9375C22.75 22.7656 23.1328 21.2344 23.2422 19.3438L23.5469 14.1641C23.1875 14.0859 22.7812 14.0312 22.3281 14C21.875 13.9531 21.3828 13.9297 20.8516 13.9297C19.3359 13.9297 18.125 14.2656 17.2188 14.9375C16.3125 15.5938 15.6562 16.4453 15.25 17.4922C14.8594 18.5234 14.6641 19.6094 14.6641 20.75Z" fill="black"/>
</svg>
