<svg width="36" height="38" viewBox="0 0 36 38" fill="none" xmlns="http://www.w3.org/2000/svg">
<path d="M31.065 30.5425L25.965 25.175C27.6105 22.9622 28.5033 20.2297 28.5 17.4167C28.5 14.9114 27.7962 12.4625 26.4776 10.3794C25.1591 8.29643 23.2849 6.67291 21.0922 5.7142C18.8995 4.75549 16.4867 4.50465 14.1589 4.99339C11.8312 5.48214 9.69295 6.68852 8.01472 8.45999C6.33649 10.2315 5.1936 12.4884 4.73058 14.9455C4.26756 17.4026 4.5052 19.9495 5.41345 22.264C6.3217 24.5785 7.85977 26.5568 9.83316 27.9486C11.8066 29.3404 14.1266 30.0833 16.5 30.0833C19.165 30.0868 21.7537 29.1444 23.85 27.4075L28.935 32.7908C29.0745 32.9392 29.2404 33.057 29.4231 33.1374C29.6059 33.2178 29.802 33.2592 30 33.2592C30.198 33.2592 30.3941 33.2178 30.5769 33.1374C30.7597 33.057 30.9256 32.9392 31.065 32.7908C31.2056 32.6436 31.3172 32.4685 31.3933 32.2756C31.4695 32.0826 31.5087 31.8757 31.5087 31.6667C31.5087 31.4576 31.4695 31.2507 31.3933 31.0578C31.3172 30.8648 31.2056 30.6897 31.065 30.5425ZM7.50001 17.4167C7.50001 15.5377 8.02785 13.701 9.01678 12.1388C10.0057 10.5765 11.4113 9.35885 13.0559 8.63982C14.7004 7.92078 16.51 7.73265 18.2558 8.09921C20.0016 8.46577 21.6053 9.37056 22.864 10.6992C24.1226 12.0278 24.9798 13.7205 25.3271 15.5633C25.6743 17.4061 25.4961 19.3163 24.8149 21.0522C24.1337 22.7881 22.9802 24.2718 21.5001 25.3156C20.0201 26.3595 18.28 26.9167 16.5 26.9167C14.1131 26.9167 11.8239 25.9158 10.136 24.1342C8.44822 22.3526 7.50001 19.9362 7.50001 17.4167Z" fill="#BEBEC1"/>
</svg>
